<?xml version="1.0" encoding="iso-8859-1"?>
<!-- Generator: Adobe Illustrator 19.0.0, SVG Export Plug-In . SVG Version: 6.00 Build 0)  -->
<svg version="1.1" id="Capa_1" xmlns="http://www.w3.org/2000/svg" xmlns:xlink="http://www.w3.org/1999/xlink" x="0px" y="0px"
	 width="40px" height="40px"  viewBox="0 0 384 384" style="enable-background:new 0 0 384 384;" xml:space="preserve">
<g>
	<g>
		<path d="M64,0v80h224v144h-16V96H0v112h64v176h240v-80h80V0H64z M70.896,180.064c-1.664,2.704-3.664,4.592-6,5.712
			c-2.336,1.12-5.136,1.68-8.4,1.68c-4.224,0-7.664-0.752-10.336-2.224c-2.672-1.472-4.736-3.728-6.24-6.816
			c-1.504-3.088-2.512-6.864-3.008-11.376c-0.512-4.512-0.784-9.744-0.784-15.696c0-5.744,0.368-10.816,1.104-15.152
			c0.736-4.352,2-7.984,3.792-10.912c1.776-2.912,4.16-5.088,7.088-6.576c2.96-1.472,6.624-2.208,11.04-2.208
			c7.552,0,12.992,1.872,16.32,5.632c3.328,3.728,4.992,9.088,4.992,16.08H67.232c0-1.264-0.144-2.576-0.432-3.92
			c-0.288-1.344-0.752-2.576-1.392-3.696c-0.64-1.104-1.456-2.048-2.432-2.784c-0.992-0.736-2.208-1.104-3.616-1.104
			c-3.328,0-5.712,1.856-7.2,5.584c-1.472,3.696-2.208,9.856-2.208,18.416c0,4.112,0.128,7.808,0.384,11.136
			c0.256,3.328,0.72,6.16,1.392,8.496s1.632,4.128,2.88,5.376c1.248,1.248,2.864,1.872,4.848,1.872c0.848,0,1.744-0.24,2.752-0.672
			c0.992-0.448,1.904-1.12,2.784-2.016c0.864-0.912,1.584-2.032,2.16-3.408c0.576-1.376,0.848-3.008,0.848-4.864v-7.008h-9.104
			V149.44h22.352v36.96H71.072v-6.336H70.896z M96,224H80v-16h16V224z M100.448,117.856h13.824V186.4h-13.824V117.856z M128,224h-16
			v-16h16V224z M160,224h-16v-16h16V224z M174.272,129.184h-14.976V186.4h-13.824v-57.216h-14.976v-11.328h43.776V129.184z M192,224
			h-16v-16h16V224z M224,224h-16v-16h16V224z M256,224h-16v-16h16V224z"/>
	</g>
</g>
<g>
	<g>
		<polygon points="320,320 320,384 384,320 		"/>
	</g>
</g>
<g>
</g>
<g>
</g>
<g>
</g>
<g>
</g>
<g>
</g>
<g>
</g>
<g>
</g>
<g>
</g>
<g>
</g>
<g>
</g>
<g>
</g>
<g>
</g>
<g>
</g>
<g>
</g>
<g>
</g>
</svg>
